<svg width="320" height="64.2857345146596" viewBox="0 0 320 64.2857345146596" class="css-1j8o68f">
    <defs id="SvgjsDefs1527"></defs>
    <g id="SvgjsG1528" featurekey="JKiIdh-0"
       transform="matrix(13.49828236025302,0,0,13.49828236025302,-7.142840706839071,-24.999916325726183)"
       fill="#ffffff">
        <g xmlns="http://www.w3.org/2000/svg" transform="translate(0,-288.53332)">
            <path style=""
                  d="M 10 7 A 1.0000001 1.0000001 0 0 0 9 8 L 9 9 L 2 9 L 2 12 L 9 12 L 9 13 A 1.0000001 1.0000001 0 0 0 10 14 L 12 14 A 1.0000001 1.0000001 0 0 0 13 13 L 13 8 A 1.0000001 1.0000001 0 0 0 12 7 L 10 7 z M 3 9.9882812 L 9 9.9882812 L 9 11 L 3 11 L 3 9.9882812 z "
                  transform="matrix(0.26458333,0,0,0.26458333,0,288.53332)" fill="#ffffff" stroke="none"></path>
            <path style="" d="m 2.1166702,292.50209 h 2.91042 v 0.2646 h -2.91042 z" fill="#ffffff" fill-opacity="1"
                  stroke="none"></path>
            <path style=""
                  d="M 3.7695312,18 A 0.50000005,0.50000005 0 0 0 3.5058594,18.923828 L 7.3925781,21.34375 5.8125,25 h 9.115234 l -1.578125,-3.65625 3.886719,-2.419922 A 0.50000005,0.50000005 0 0 0 16.972656,18 Z"
                  transform="matrix(0.26458333,0,0,0.26458333,0,288.53332)" fill="#ffffff" stroke="none"></path>
            <path style=""
                  d="m 4.5774901,293.08259 a 0.89356885,0.89356885 0 0 0 1.4131401,-0.2828 l 1.7731198,0.5851 a 0.13229168,0.13229168 0 0 0 0.0829,-0.2512 l -1.5128398,-0.4993 1.5128398,-0.4992 a 0.13231034,0.13231034 0 0 0 -0.0829,-0.2513 l -1.7731198,0.5851 a 0.89356885,0.89356885 0 0 0 -1.4131401,-0.2828 0.13229203,0.13229203 0 0 0 0.1785001,0.1953 0.62898555,0.62898555 0 0 1 1.0167699,0.2529 0.62898555,0.62898555 0 0 1 -1.0167699,0.2529 0.13229203,0.13229203 0 0 0 -0.1785001,0.1953 z"
                  fill="#ffffff" stroke="none"></path>
            <path style=""
                  d="m 4.3539503,291.69369 a 0.13229637,0.13229637 0 0 0 0.1651799,0.2067 l 0.4987599,-0.3986 a 0.13229325,0.13229325 0 0 0 -0.1651698,-0.2067 z"
                  fill="#ffffff" fill-opacity="1" stroke="none"></path>
            <path style=""
                  d="m 4.1528201,290.82039 -0.3452799,0.7464 a 0.13229742,0.13229742 0 0 0 0.24014,0.1111 l 0.3452699,-0.7464 a 0.13229289,0.13229289 0 0 0 -0.24013,-0.1111 z"
                  fill="#ffffff" fill-opacity="1" stroke="none"></path>
        </g>
    </g>
    <g id="SvgjsG1529" featurekey="A7DQL5-0"
       transform="matrix(2.220248246628601,0,0,2.220248246628601,119.9556408660547,5.586147942469227)" fill="#ffffff">
        <path d="M2.08 11.02 l1.78 1.66 c0.56 0.52 1 1.0767 1.32 1.67 s0.48 1.19 0.48 1.79 l0 0.26 c0.01334 0.42666 -0.04 0.80666 -0.16 1.14 l0.74 0 c0.10666 -0.36 0.15332 -0.73334 0.13998 -1.12 l0 -0.28 c0 -0.72 -0.18334 -1.4067 -0.55 -2.06 s-0.87666 -1.2933 -1.53 -1.92 l-1.72 -1.62 c-0.54666 -0.52 -0.99666 -1.0067 -1.35 -1.46 s-0.53 -1.02 -0.53 -1.7 l0 -0.12 c0 -0.70666 0.19666 -1.2767 0.59 -1.71 s0.94334 -0.65 1.65 -0.65 c0.50666 0 0.92 0.07666 1.24 0.23 s0.64666 0.38334 0.98 0.69 l0.46 -0.52 c-0.37334 -0.34666 -0.75668 -0.60666 -1.15 -0.78 s-0.90334 -0.26 -1.53 -0.26 c-0.81334 0 -1.5033 0.26334 -2.07 0.79 s-0.85 1.2567 -0.85 2.19 l0 0.16 c0 0.76 0.19 1.41 0.57 1.95 s0.87666 1.0967 1.49 1.67 z M5.96 18.3 l-0.82002 0 c-0.46666 0.68 -1.2133 1.0267 -2.24 1.04 c-0.34666 0 -0.66 -0.04 -0.94 -0.12 l0 0.7 c0.28 0.05334 0.59334 0.08 0.94 0.08 c0.72 0 1.34 -0.14666 1.86 -0.44 s0.92 -0.71334 1.2 -1.26 z M18.060000000000002 20 l0 -15.76 l-0.66 0 l-3.88 7.22 l-2.58 -4.8 l-0.58 0.32 l3.16 5.86 l3.9 -7.28 l0 14.44 l0.64 0 z M9.620000000000001 20 l0 -14.4 l0.16 0.3 l0.58 -0.3 l-0.74 -1.36 l-0.64 0 l0 15.76 l0.64 0 z M20.66 4.24 l0 15.76 l0.52 0 l0 -15.76 l-0.52 0 z M29.64 4.5 l-0.000019531 -0.26 l-5.86 0 l0 0.64 l3.38 0 l0 15.12 l0.7 0 l0 -15.12 l1.8 0 c-0.02666 -0.21334 -0.03332 -0.34 -0.01998 -0.38 z M30.16 4.24 l0 0.64 l1.1 0 l0 -0.64 l-1.1 0 z M34.54 13.96 l0 -9.72 l-0.68 0 l0 15.76 l0.68 0 l0 -5.4 l0 -0.64 z M34.82 14.6 l5.84 0 l0 5.4 l0.68 0 l0 -11.62 l-0.68 0 l0 5.58 l-5.84 0 l0 0.64 z M50.879999999999995 19.96 l0.039942 -0.63998 c-1.96 -0.13334 -3.52 -0.94668 -4.68 -2.44 c-1.1067 -1.3867 -1.66 -3.06 -1.66 -5.02 c0 -1.0267 0.16666 -1.9167 0.5 -2.67 s0.83334 -1.4833 1.5 -2.19 c1.3333 -1.4 3 -2.1 5 -2.1 c1.2133 0 2.3066 0.26 3.28 0.78 s1.7667 1.2467 2.38 2.18 l0.48 -0.38 c-0.66666 -1.0133 -1.5333 -1.8067 -2.6 -2.38 c-1.0133 -0.54666 -2.16 -0.81332 -3.44 -0.79998 c-1.08 0 -2.0934 0.18334 -3.04 0.55 s-1.78 0.93 -2.5 1.69 c-0.72 0.77334 -1.2633 1.5733 -1.63 2.4 s-0.55 1.8 -0.55 2.92 c0.01334 2.12 0.62 3.9334 1.82 5.44 c1.28 1.6133 2.98 2.5 5.1 2.66 z M52.099999999999994 19.98002 c1.0933 -0.06666 2.0934 -0.32664 3 -0.77998 c1.04 -0.53334 1.9133 -1.2867 2.62 -2.26 l-0.46 -0.4 c-0.64 0.88 -1.4467 1.5733 -2.42 2.08 c-0.84 0.42666 -1.76 0.66666 -2.76 0.72 z M65.66 6.140000000000001 c0 0.08 0.23666 0.84334 0.71 2.29 s0.99 3.03 1.55 4.75 s1.3133 3.9934 2.26 6.82 l0.86 0 l-5.3 -15.76 l-0.16 0 l-5.26 15.76 l0.82 0 z M65.3 15.52 l-0.72 0 l1.2 4.48 l0.72 0 z M75.71999999999998 11.02 l1.78 1.66 c0.56 0.52 1 1.0767 1.32 1.67 s0.48 1.19 0.48 1.79 l0 0.26 c0.01334 0.42666 -0.04 0.80666 -0.16 1.14 l0.74 0 c0.10666 -0.36 0.15332 -0.73334 0.13998 -1.12 l0 -0.28 c0 -0.72 -0.18334 -1.4067 -0.55 -2.06 s-0.87666 -1.2933 -1.53 -1.92 l-1.72 -1.62 c-0.54666 -0.52 -0.99666 -1.0067 -1.35 -1.46 s-0.53 -1.02 -0.53 -1.7 l0 -0.12 c0 -0.70666 0.19666 -1.2767 0.59 -1.71 s0.94334 -0.65 1.65 -0.65 c0.50666 0 0.92 0.07666 1.24 0.23 s0.64666 0.38334 0.98 0.69 l0.46 -0.52 c-0.37334 -0.34666 -0.75668 -0.60666 -1.15 -0.78 s-0.90334 -0.26 -1.53 -0.26 c-0.81334 0 -1.5033 0.26334 -2.07 0.79 s-0.85 1.2567 -0.85 2.19 l0 0.16 c0 0.76 0.19 1.41 0.57 1.95 s0.87666 1.0967 1.49 1.67 z M79.59999999999998 18.3 l-0.82002 0 c-0.46666 0.68 -1.2133 1.0267 -2.24 1.04 c-0.34666 0 -0.66 -0.04 -0.94 -0.12 l0 0.7 c0.28 0.05334 0.59334 0.08 0.94 0.08 c0.72 0 1.34 -0.14666 1.86 -0.44 s0.92 -0.71334 1.2 -1.26 z M88.47999999999999 4.5 l-0.000019531 -0.26 l-5.86 0 l0 0.64 l3.38 0 l0 15.12 l0.7 0 l0 -15.12 l1.8 0 c-0.02666 -0.21334 -0.03332 -0.34 -0.01998 -0.38 z M88.99999999999999 4.24 l0 0.64 l1.1 0 l0 -0.64 l-1.1 0 z"></path>
    </g>
</svg>